<svg width="46" height="48" viewBox="0 0 46 48" fill="none" xmlns="http://www.w3.org/2000/svg">
<path d="M42.8276 45.6C42.8276 46.0418 42.4725 46.4 42.0345 46.4H34.1034V43.6641C34.0957 41.1414 32.4239 38.9324 30.0132 38.2602L25.3793 36.9887V35.7777C26.8648 34.7344 27.7528 33.0258 27.7586 31.2V29.6855C27.9608 29.5922 28.0886 29.5258 28.113 29.516C28.3821 29.3805 28.5517 29.1031 28.5517 28.8V24L32.8019 22.3512C33.109 22.2328 33.3119 21.9355 33.3119 21.6039C33.3119 21.2723 33.109 20.9754 32.8019 20.8566L22.4915 16.8566C22.3084 16.7863 22.1054 16.7863 21.9223 16.8566L11.6119 20.8566C11.3068 20.975 11.105 21.2703 11.1034 21.6V25.2688L8.95649 27.4344L10.078 28.5656L11.1034 27.5312V28.8H12.6897V27.5312L13.7151 28.5656L14.8366 27.4344L12.6897 25.2688V22.7648L15.8621 24V28.8C15.8605 29.1047 16.0305 29.384 16.3008 29.5199C16.3252 29.532 16.453 29.5961 16.6552 29.6895V31.2C16.6412 33.0312 17.5335 34.7492 19.0345 35.7801V36.9887L14.3978 38.2609C11.9887 38.9336 10.3177 41.1422 10.3103 43.6641V46.4H2.37931C1.94132 46.4 1.58621 46.0418 1.58621 45.6V14.4H23.7931V12.8H1.58621V8.8C1.58621 8.3582 1.94132 8 2.37931 8H23.7931V6.4H2.37931C1.06535 6.4 0 7.47461 0 8.8V45.6C0 46.9254 1.06535 48 2.37931 48H42.0345C43.3484 48 44.4138 46.9254 44.4138 45.6V16H42.8276V45.6ZM20.6207 37.6V36.5602C21.6543 36.8809 22.7595 36.8809 23.7931 36.5602V37.6C23.7958 37.8293 23.8965 38.0461 24.07 38.1945L22.2069 39.7602L20.3438 38.1953C20.5173 38.0469 20.6184 37.8297 20.6207 37.6ZM22.2069 18.4566L30.3076 21.6L22.2069 24.7434L14.1062 21.6L22.2069 18.4566ZM21.9223 26.3473C22.1054 26.4176 22.3084 26.4176 22.4915 26.3473L26.9655 24.6113V28.291C25.4715 29.016 23.8589 29.4598 22.2069 29.6C20.5549 29.4586 18.9423 29.0148 17.4483 28.2902V24.6105L21.9223 26.3473ZM18.2414 31.2V30.3414C19.5073 30.8457 20.8472 31.1359 22.2069 31.2C23.5666 31.1359 24.9065 30.8457 26.1724 30.3414V31.2C26.1705 32.6293 25.4126 33.9492 24.1842 34.6621C22.9559 35.375 21.4436 35.3723 20.2179 34.6551C19.9186 34.4836 19.6444 34.2711 19.4024 34.0238C18.655 33.2785 18.2363 32.2605 18.2414 31.2ZM11.8966 43.6641C11.9024 41.8625 13.0963 40.2848 14.8176 39.8039L18.5585 38.7777L21.6992 41.4176C21.9935 41.6648 22.4203 41.6648 22.7146 41.4176L25.8552 38.7777L29.5938 39.8031C31.316 40.2836 32.5107 41.8617 32.5172 43.6641V46.4H30.1379V43.2H28.5517V46.4H15.8621V43.2H14.2759V46.4H11.8966V43.6641Z" fill="black"/>
<path d="M42.8276 45.6C42.8276 46.0418 42.4725 46.4 42.0345 46.4H34.1034V43.6641C34.0957 41.1414 32.4239 38.9324 30.0132 38.2602L25.3793 36.9887V35.7777C26.8648 34.7344 27.7528 33.0258 27.7586 31.2V29.6855C27.9608 29.5922 28.0886 29.5258 28.113 29.516C28.3821 29.3805 28.5517 29.1031 28.5517 28.8V24L32.8019 22.3512C33.109 22.2328 33.3119 21.9355 33.3119 21.6039C33.3119 21.2723 33.109 20.9754 32.8019 20.8566L22.4915 16.8566C22.3084 16.7863 22.1054 16.7863 21.9223 16.8566L11.6119 20.8566C11.3068 20.975 11.105 21.2703 11.1034 21.6V25.2688L8.95649 27.4344L10.078 28.5656L11.1034 27.5312V28.8H12.6897V27.5312L13.7151 28.5656L14.8366 27.4344L12.6897 25.2688V22.7648L15.8621 24V28.8C15.8605 29.1047 16.0305 29.384 16.3008 29.5199C16.3252 29.532 16.453 29.5961 16.6552 29.6895V31.2C16.6412 33.0312 17.5335 34.7492 19.0345 35.7801V36.9887L14.3978 38.2609C11.9887 38.9336 10.3177 41.1422 10.3103 43.6641V46.4H2.37931C1.94132 46.4 1.58621 46.0418 1.58621 45.6V14.4H23.7931V12.8H1.58621V8.8C1.58621 8.3582 1.94132 8 2.37931 8H23.7931V6.4H2.37931C1.06535 6.4 0 7.47461 0 8.8V45.6C0 46.9254 1.06535 48 2.37931 48H42.0345C43.3484 48 44.4138 46.9254 44.4138 45.6V16H42.8276V45.6ZM20.6207 37.6V36.5602C21.6543 36.8809 22.7595 36.8809 23.7931 36.5602V37.6C23.7958 37.8293 23.8965 38.0461 24.07 38.1945L22.2069 39.7602L20.3438 38.1953C20.5173 38.0469 20.6184 37.8297 20.6207 37.6ZM22.2069 18.4566L30.3076 21.6L22.2069 24.7434L14.1062 21.6L22.2069 18.4566ZM21.9223 26.3473C22.1054 26.4176 22.3084 26.4176 22.4915 26.3473L26.9655 24.6113V28.291C25.4715 29.016 23.8589 29.4598 22.2069 29.6C20.5549 29.4586 18.9423 29.0148 17.4483 28.2902V24.6105L21.9223 26.3473ZM18.2414 31.2V30.3414C19.5073 30.8457 20.8472 31.1359 22.2069 31.2C23.5666 31.1359 24.9065 30.8457 26.1724 30.3414V31.2C26.1705 32.6293 25.4126 33.9492 24.1842 34.6621C22.9559 35.375 21.4436 35.3723 20.2179 34.6551C19.9186 34.4836 19.6444 34.2711 19.4024 34.0238C18.655 33.2785 18.2363 32.2605 18.2414 31.2ZM11.8966 43.6641C11.9024 41.8625 13.0963 40.2848 14.8176 39.8039L18.5585 38.7777L21.6992 41.4176C21.9935 41.6648 22.4203 41.6648 22.7146 41.4176L25.8552 38.7777L29.5938 39.8031C31.316 40.2836 32.5107 41.8617 32.5172 43.6641V46.4H30.1379V43.2H28.5517V46.4H15.8621V43.2H14.2759V46.4H11.8966V43.6641Z" fill="url(#paint0_linear)"/>
<path d="M4.75862 9.6H6.34483V11.2H4.75862V9.6Z" fill="black"/>
<path d="M4.75862 9.6H6.34483V11.2H4.75862V9.6Z" fill="url(#paint1_linear)"/>
<path d="M7.93103 9.6H9.51724V11.2H7.93103V9.6Z" fill="black"/>
<path d="M7.93103 9.6H9.51724V11.2H7.93103V9.6Z" fill="url(#paint2_linear)"/>
<path d="M11.1034 9.6H12.6897V11.2H11.1034V9.6Z" fill="black"/>
<path d="M11.1034 9.6H12.6897V11.2H11.1034V9.6Z" fill="url(#paint3_linear)"/>
<path d="M43.6207 0H27.7586C26.4447 0 25.3793 1.07461 25.3793 2.4V12C25.3793 13.3254 26.4447 14.4 27.7586 14.4H30.1379V17.6C30.1379 17.9398 30.3505 18.2426 30.6685 18.3551C30.7529 18.3844 30.8416 18.3996 30.931 18.4C31.1719 18.4 31.4 18.2898 31.5503 18.1L34.4841 14.4H43.6207C44.9347 14.4 46 13.3254 46 12V2.4C46 1.07461 44.9347 0 43.6207 0ZM44.4138 12C44.4138 12.4418 44.0587 12.8 43.6207 12.8H34.1034C33.8626 12.8 33.6345 12.9102 33.4842 13.1L31.7241 15.3191V13.6C31.7241 13.1582 31.369 12.8 30.931 12.8H27.7586C27.3206 12.8 26.9655 12.4418 26.9655 12V2.4C26.9655 1.9582 27.3206 1.6 27.7586 1.6H43.6207C44.0587 1.6 44.4138 1.9582 44.4138 2.4V12Z" fill="black"/>
<path d="M43.6207 0H27.7586C26.4447 0 25.3793 1.07461 25.3793 2.4V12C25.3793 13.3254 26.4447 14.4 27.7586 14.4H30.1379V17.6C30.1379 17.9398 30.3505 18.2426 30.6685 18.3551C30.7529 18.3844 30.8416 18.3996 30.931 18.4C31.1719 18.4 31.4 18.2898 31.5503 18.1L34.4841 14.4H43.6207C44.9347 14.4 46 13.3254 46 12V2.4C46 1.07461 44.9347 0 43.6207 0ZM44.4138 12C44.4138 12.4418 44.0587 12.8 43.6207 12.8H34.1034C33.8626 12.8 33.6345 12.9102 33.4842 13.1L31.7241 15.3191V13.6C31.7241 13.1582 31.369 12.8 30.931 12.8H27.7586C27.3206 12.8 26.9655 12.4418 26.9655 12V2.4C26.9655 1.9582 27.3206 1.6 27.7586 1.6H43.6207C44.0587 1.6 44.4138 1.9582 44.4138 2.4V12Z" fill="url(#paint4_linear)"/>
<path d="M30.1379 3.2H41.2414V4.8H30.1379V3.2Z" fill="black"/>
<path d="M30.1379 3.2H41.2414V4.8H30.1379V3.2Z" fill="url(#paint5_linear)"/>
<path d="M30.1379 6.4H41.2414V8H30.1379V6.4Z" fill="black"/>
<path d="M30.1379 6.4H41.2414V8H30.1379V6.4Z" fill="url(#paint6_linear)"/>
<path d="M30.1379 9.6H41.2414V11.2H30.1379V9.6Z" fill="black"/>
<path d="M30.1379 9.6H41.2414V11.2H30.1379V9.6Z" fill="url(#paint7_linear)"/>
<defs>
<linearGradient id="paint0_linear" x1="37.7813" y1="-14.101" x2="-21.36" y2="25.5584" gradientUnits="userSpaceOnUse">
<stop stop-color="#4DA9FF"/>
<stop offset="1" stop-color="#A041FF"/>
</linearGradient>
<linearGradient id="paint1_linear" x1="37.7813" y1="-14.101" x2="-21.36" y2="25.5584" gradientUnits="userSpaceOnUse">
<stop stop-color="#4DA9FF"/>
<stop offset="1" stop-color="#A041FF"/>
</linearGradient>
<linearGradient id="paint2_linear" x1="37.7813" y1="-14.101" x2="-21.36" y2="25.5584" gradientUnits="userSpaceOnUse">
<stop stop-color="#4DA9FF"/>
<stop offset="1" stop-color="#A041FF"/>
</linearGradient>
<linearGradient id="paint3_linear" x1="37.7813" y1="-14.101" x2="-21.36" y2="25.5584" gradientUnits="userSpaceOnUse">
<stop stop-color="#4DA9FF"/>
<stop offset="1" stop-color="#A041FF"/>
</linearGradient>
<linearGradient id="paint4_linear" x1="37.7813" y1="-14.101" x2="-21.36" y2="25.5584" gradientUnits="userSpaceOnUse">
<stop stop-color="#4DA9FF"/>
<stop offset="1" stop-color="#A041FF"/>
</linearGradient>
<linearGradient id="paint5_linear" x1="37.7813" y1="-14.101" x2="-21.36" y2="25.5584" gradientUnits="userSpaceOnUse">
<stop stop-color="#4DA9FF"/>
<stop offset="1" stop-color="#A041FF"/>
</linearGradient>
<linearGradient id="paint6_linear" x1="37.7813" y1="-14.101" x2="-21.36" y2="25.5584" gradientUnits="userSpaceOnUse">
<stop stop-color="#4DA9FF"/>
<stop offset="1" stop-color="#A041FF"/>
</linearGradient>
<linearGradient id="paint7_linear" x1="37.7813" y1="-14.101" x2="-21.36" y2="25.5584" gradientUnits="userSpaceOnUse">
<stop stop-color="#4DA9FF"/>
<stop offset="1" stop-color="#A041FF"/>
</linearGradient>
</defs>
</svg>
