<svg width="50" height="50" viewBox="0 0 50 50" fill="none" xmlns="http://www.w3.org/2000/svg">
<path d="M27.4882 33.4709L27.7816 31.7151L29.2301 32.7498C29.5614 32.9867 30.0155 32.9488 30.3031 32.6607L32.6599 30.3044C32.948 30.0163 32.9858 29.5622 32.749 29.231L31.7159 27.7824L33.4709 27.489C33.8725 27.4219 34.1671 27.074 34.1667 26.6667V23.3333C34.1667 22.9264 33.8725 22.5789 33.4709 22.5118L31.7151 22.2184L32.7498 20.7699C32.9867 20.4386 32.9488 19.9845 32.6607 19.6969L30.3044 17.3401C30.0163 17.052 29.5622 17.0142 29.231 17.251L27.7824 18.2841L27.489 16.5291C27.4219 16.1275 27.074 15.8329 26.6667 15.8333H23.3333C22.9264 15.8333 22.5789 16.1275 22.5118 16.5291L22.2184 18.2849L20.7699 17.2502C20.4386 17.0133 19.9845 17.0512 19.6969 17.3393L17.3401 19.6956C17.052 19.9837 17.0142 20.4378 17.251 20.769L18.2841 22.2176L16.5291 22.511C16.1275 22.5781 15.8329 22.926 15.8333 23.3333V26.6667C15.8333 27.0736 16.1275 27.4211 16.5291 27.4882L18.2849 27.7816L17.2502 29.2301C17.0133 29.5614 17.0512 30.0155 17.3393 30.3031L19.6956 32.6599C19.9837 32.948 20.4378 32.9858 20.769 32.749L22.2176 31.7159L22.511 33.4709C22.5781 33.8725 22.926 34.1671 23.3333 34.1667H26.6667C27.0736 34.1667 27.4211 33.8725 27.4882 33.4709ZM26.1377 31.4408L25.9607 32.5H24.0393L23.8623 31.4417C23.7683 30.8744 23.3883 30.3955 22.8569 30.1754C22.3254 29.9548 21.7179 30.024 21.25 30.3585L20.376 30.9827L19.0165 29.624L19.6407 28.7508C19.9756 28.2829 20.0448 27.675 19.8246 27.1436C19.6041 26.6117 19.1252 26.2317 18.5575 26.1377L17.5 25.9607V24.0393L18.5583 23.8623C19.1256 23.7683 19.6045 23.3883 19.8246 22.8569C20.0452 22.3254 19.976 21.7179 19.6415 21.25L19.0173 20.376L20.3768 19.0165L21.25 19.6407C21.7183 19.9756 22.3258 20.0448 22.8573 19.8246C23.3891 19.6041 23.7691 19.1252 23.8635 18.5575L24.0393 17.5H25.9607L26.1377 18.5583C26.2317 19.1256 26.6117 19.6045 27.1431 19.8246C27.6746 20.0452 28.2821 19.976 28.75 19.6415L29.624 19.0173L30.9835 20.3768L30.3593 21.25C30.0244 21.7183 29.9552 22.3258 30.1754 22.8573C30.3959 23.3891 30.8748 23.7691 31.4425 23.8635L32.5 24.0393V25.9607L31.4417 26.1377C30.8744 26.2317 30.3955 26.6117 30.1754 27.1431C29.9548 27.6746 30.024 28.2821 30.3585 28.75L30.9827 29.624L29.624 30.9835L28.75 30.3593C28.2817 30.0244 27.6742 29.9552 27.1427 30.1754C26.6109 30.3959 26.2309 30.8748 26.1365 31.4425L26.1377 31.4408Z" fill="black"/>
<path d="M27.4882 33.4709L27.7816 31.7151L29.2301 32.7498C29.5614 32.9867 30.0155 32.9488 30.3031 32.6607L32.6599 30.3044C32.948 30.0163 32.9858 29.5622 32.749 29.231L31.7159 27.7824L33.4709 27.489C33.8725 27.4219 34.1671 27.074 34.1667 26.6667V23.3333C34.1667 22.9264 33.8725 22.5789 33.4709 22.5118L31.7151 22.2184L32.7498 20.7699C32.9867 20.4386 32.9488 19.9845 32.6607 19.6969L30.3044 17.3401C30.0163 17.052 29.5622 17.0142 29.231 17.251L27.7824 18.2841L27.489 16.5291C27.4219 16.1275 27.074 15.8329 26.6667 15.8333H23.3333C22.9264 15.8333 22.5789 16.1275 22.5118 16.5291L22.2184 18.2849L20.7699 17.2502C20.4386 17.0133 19.9845 17.0512 19.6969 17.3393L17.3401 19.6956C17.052 19.9837 17.0142 20.4378 17.251 20.769L18.2841 22.2176L16.5291 22.511C16.1275 22.5781 15.8329 22.926 15.8333 23.3333V26.6667C15.8333 27.0736 16.1275 27.4211 16.5291 27.4882L18.2849 27.7816L17.2502 29.2301C17.0133 29.5614 17.0512 30.0155 17.3393 30.3031L19.6956 32.6599C19.9837 32.948 20.4378 32.9858 20.769 32.749L22.2176 31.7159L22.511 33.4709C22.5781 33.8725 22.926 34.1671 23.3333 34.1667H26.6667C27.0736 34.1667 27.4211 33.8725 27.4882 33.4709ZM26.1377 31.4408L25.9607 32.5H24.0393L23.8623 31.4417C23.7683 30.8744 23.3883 30.3955 22.8569 30.1754C22.3254 29.9548 21.7179 30.024 21.25 30.3585L20.376 30.9827L19.0165 29.624L19.6407 28.7508C19.9756 28.2829 20.0448 27.675 19.8246 27.1436C19.6041 26.6117 19.1252 26.2317 18.5575 26.1377L17.5 25.9607V24.0393L18.5583 23.8623C19.1256 23.7683 19.6045 23.3883 19.8246 22.8569C20.0452 22.3254 19.976 21.7179 19.6415 21.25L19.0173 20.376L20.3768 19.0165L21.25 19.6407C21.7183 19.9756 22.3258 20.0448 22.8573 19.8246C23.3891 19.6041 23.7691 19.1252 23.8635 18.5575L24.0393 17.5H25.9607L26.1377 18.5583C26.2317 19.1256 26.6117 19.6045 27.1431 19.8246C27.6746 20.0452 28.2821 19.976 28.75 19.6415L29.624 19.0173L30.9835 20.3768L30.3593 21.25C30.0244 21.7183 29.9552 22.3258 30.1754 22.8573C30.3959 23.3891 30.8748 23.7691 31.4425 23.8635L32.5 24.0393V25.9607L31.4417 26.1377C30.8744 26.2317 30.3955 26.6117 30.1754 27.1431C29.9548 27.6746 30.024 28.2821 30.3585 28.75L30.9827 29.624L29.624 30.9835L28.75 30.3593C28.2817 30.0244 27.6742 29.9552 27.1427 30.1754C26.6109 30.3959 26.2309 30.8748 26.1365 31.4425L26.1377 31.4408Z" fill="url(#paint0_linear)"/>
<path d="M29.1667 25C29.1667 22.699 27.301 20.8333 25 20.8333C22.699 20.8333 20.8333 22.699 20.8333 25C20.8333 27.301 22.699 29.1667 25 29.1667C27.3002 29.1638 29.1638 27.3002 29.1667 25ZM25 27.5C23.6194 27.5 22.5 26.3806 22.5 25C22.5 23.6194 23.6194 22.5 25 22.5C26.3806 22.5 27.5 23.6194 27.5 25C27.5 26.3806 26.3806 27.5 25 27.5Z" fill="black"/>
<path d="M29.1667 25C29.1667 22.699 27.301 20.8333 25 20.8333C22.699 20.8333 20.8333 22.699 20.8333 25C20.8333 27.301 22.699 29.1667 25 29.1667C27.3002 29.1638 29.1638 27.3002 29.1667 25ZM25 27.5C23.6194 27.5 22.5 26.3806 22.5 25C22.5 23.6194 23.6194 22.5 25 22.5C26.3806 22.5 27.5 23.6194 27.5 25C27.5 26.3806 26.3806 27.5 25 27.5Z" fill="url(#paint1_linear)"/>
<path d="M38.75 8.26497L40.3451 6.66667H41.6667V5H40C39.7791 5 39.5671 5.08789 39.4108 5.24414L37.404 7.25016C29.4189 1.6508 18.6723 2.09432 11.1759 8.33333L8.92578 6.08317C8.76994 5.92407 8.55631 5.83415 8.33333 5.83333H6.66667V7.5H7.98828L9.93652 9.44824C2.48983 16.6496 1.18693 28.1169 6.82861 36.805C12.4699 45.4932 23.4753 48.9685 33.0835 45.096L36.0767 48.0892C36.2333 48.2458 36.4453 48.3333 36.6667 48.3333H38.3333V46.6667H37.0117L34.7066 44.3616C41.2663 41.0803 45.7182 34.7005 46.5344 27.4117C47.3511 20.1229 44.421 12.9163 38.75 8.26497ZM36.4258 10.5892L37.5635 9.4515C42.0382 13.0607 44.7404 18.4229 44.9792 24.1667H41.6243C41.1898 15.6319 34.3681 8.81022 25.8333 8.37565V5.02075C29.5439 5.1709 33.1384 6.35742 36.2093 8.44564L35.2441 9.41081L36.4258 10.5892ZM14.3966 35.6018C9.34204 30.5408 8.56608 22.6135 12.5431 16.6683C16.5206 10.7231 24.1439 8.41512 30.7507 11.156C37.358 13.8965 41.1092 20.9229 39.7107 27.9374C38.3118 34.9524 32.1529 40.0028 25 40C21.0193 40.0122 17.1997 38.4281 14.3966 35.6018ZM5 25C4.99837 19.5764 7.20622 14.3864 11.1141 10.6258L11.9108 11.4225L13.0892 10.2441L12.36 9.51416C15.7031 6.77409 19.8474 5.19653 24.1667 5.02075V8.37565C15.3068 8.82243 8.34798 16.1287 8.33333 25C8.3256 29.1325 9.86898 33.1173 12.6583 36.1666L10.2816 38.5433C6.87256 34.8588 4.98535 30.0199 5 25ZM33.4607 43.1156L32.2559 41.9108L31.0775 43.0892L31.7977 43.809C24.7868 46.3411 16.9503 44.7644 11.464 39.7184L13.8334 37.3417C16.8827 40.131 20.8675 41.6744 25 41.6667C33.8713 41.652 41.1776 34.6932 41.6243 25.8333H44.9792C44.6602 33.2906 40.2209 39.9516 33.4607 43.1156Z" fill="black"/>
<path d="M38.75 8.26497L40.3451 6.66667H41.6667V5H40C39.7791 5 39.5671 5.08789 39.4108 5.24414L37.404 7.25016C29.4189 1.6508 18.6723 2.09432 11.1759 8.33333L8.92578 6.08317C8.76994 5.92407 8.55631 5.83415 8.33333 5.83333H6.66667V7.5H7.98828L9.93652 9.44824C2.48983 16.6496 1.18693 28.1169 6.82861 36.805C12.4699 45.4932 23.4753 48.9685 33.0835 45.096L36.0767 48.0892C36.2333 48.2458 36.4453 48.3333 36.6667 48.3333H38.3333V46.6667H37.0117L34.7066 44.3616C41.2663 41.0803 45.7182 34.7005 46.5344 27.4117C47.3511 20.1229 44.421 12.9163 38.75 8.26497ZM36.4258 10.5892L37.5635 9.4515C42.0382 13.0607 44.7404 18.4229 44.9792 24.1667H41.6243C41.1898 15.6319 34.3681 8.81022 25.8333 8.37565V5.02075C29.5439 5.1709 33.1384 6.35742 36.2093 8.44564L35.2441 9.41081L36.4258 10.5892ZM14.3966 35.6018C9.34204 30.5408 8.56608 22.6135 12.5431 16.6683C16.5206 10.7231 24.1439 8.41512 30.7507 11.156C37.358 13.8965 41.1092 20.9229 39.7107 27.9374C38.3118 34.9524 32.1529 40.0028 25 40C21.0193 40.0122 17.1997 38.4281 14.3966 35.6018ZM5 25C4.99837 19.5764 7.20622 14.3864 11.1141 10.6258L11.9108 11.4225L13.0892 10.2441L12.36 9.51416C15.7031 6.77409 19.8474 5.19653 24.1667 5.02075V8.37565C15.3068 8.82243 8.34798 16.1287 8.33333 25C8.3256 29.1325 9.86898 33.1173 12.6583 36.1666L10.2816 38.5433C6.87256 34.8588 4.98535 30.0199 5 25ZM33.4607 43.1156L32.2559 41.9108L31.0775 43.0892L31.7977 43.809C24.7868 46.3411 16.9503 44.7644 11.464 39.7184L13.8334 37.3417C16.8827 40.131 20.8675 41.6744 25 41.6667C33.8713 41.652 41.1776 34.6932 41.6243 25.8333H44.9792C44.6602 33.2906 40.2209 39.9516 33.4607 43.1156Z" fill="url(#paint2_linear)"/>
<path d="M46.6667 3.33333H50V5H46.6667V3.33333Z" fill="black"/>
<path d="M46.6667 3.33333H50V5H46.6667V3.33333Z" fill="url(#paint3_linear)"/>
<path d="M43.3333 3.33333H45V5H43.3333V3.33333Z" fill="black"/>
<path d="M43.3333 3.33333H45V5H43.3333V3.33333Z" fill="url(#paint4_linear)"/>
<path d="M43.3333 6.66667H50V8.33333H43.3333V6.66667Z" fill="black"/>
<path d="M43.3333 6.66667H50V8.33333H43.3333V6.66667Z" fill="url(#paint5_linear)"/>
<path d="M24.1667 0H25.8333V1.66667H24.1667V0Z" fill="black"/>
<path d="M24.1667 0H25.8333V1.66667H24.1667V0Z" fill="url(#paint6_linear)"/>
<path d="M20.8333 0H22.5V1.66667H20.8333V0Z" fill="black"/>
<path d="M20.8333 0H22.5V1.66667H20.8333V0Z" fill="url(#paint7_linear)"/>
<path d="M17.5 0H19.1667V1.66667H17.5V0Z" fill="black"/>
<path d="M17.5 0H19.1667V1.66667H17.5V0Z" fill="url(#paint8_linear)"/>
<path d="M14.1667 0H15.8333V1.66667H14.1667V0Z" fill="black"/>
<path d="M14.1667 0H15.8333V1.66667H14.1667V0Z" fill="url(#paint9_linear)"/>
<path d="M10.8333 0H12.5V1.66667H10.8333V0Z" fill="black"/>
<path d="M10.8333 0H12.5V1.66667H10.8333V0Z" fill="url(#paint10_linear)"/>
<path d="M27.5 0H29.1667V1.66667H27.5V0Z" fill="black"/>
<path d="M27.5 0H29.1667V1.66667H27.5V0Z" fill="url(#paint11_linear)"/>
<path d="M30.8333 0H32.5V1.66667H30.8333V0Z" fill="black"/>
<path d="M30.8333 0H32.5V1.66667H30.8333V0Z" fill="url(#paint12_linear)"/>
<path d="M34.1667 0H35.8333V1.66667H34.1667V0Z" fill="black"/>
<path d="M34.1667 0H35.8333V1.66667H34.1667V0Z" fill="url(#paint13_linear)"/>
<path d="M37.5 0H39.1667V1.66667H37.5V0Z" fill="black"/>
<path d="M37.5 0H39.1667V1.66667H37.5V0Z" fill="url(#paint14_linear)"/>
<path d="M40 48.3333H46.6667V50H40V48.3333Z" fill="black"/>
<path d="M40 48.3333H46.6667V50H40V48.3333Z" fill="url(#paint15_linear)"/>
<path d="M40 45H41.6667V46.6667H40V45Z" fill="black"/>
<path d="M40 45H41.6667V46.6667H40V45Z" fill="url(#paint16_linear)"/>
<path d="M43.3333 45H46.6667V46.6667H43.3333V45Z" fill="black"/>
<path d="M43.3333 45H46.6667V46.6667H43.3333V45Z" fill="url(#paint17_linear)"/>
<path d="M0 4.16667H5V5.83333H0V4.16667Z" fill="black"/>
<path d="M0 4.16667H5V5.83333H0V4.16667Z" fill="url(#paint18_linear)"/>
<path d="M0 7.5H5V9.16667H0V7.5Z" fill="black"/>
<path d="M0 7.5H5V9.16667H0V7.5Z" fill="url(#paint19_linear)"/>
<path d="M0 45H8.33333V46.6667H0V45Z" fill="black"/>
<path d="M0 45H8.33333V46.6667H0V45Z" fill="url(#paint20_linear)"/>
<path d="M0 48.3333H8.33333V50H0V48.3333Z" fill="black"/>
<path d="M0 48.3333H8.33333V50H0V48.3333Z" fill="url(#paint21_linear)"/>
<defs>
<linearGradient id="paint0_linear" x1="41.0667" y1="-14.6885" x2="-21.4933" y2="29.0873" gradientUnits="userSpaceOnUse">
<stop stop-color="#4DA9FF"/>
<stop offset="1" stop-color="#A041FF"/>
</linearGradient>
<linearGradient id="paint1_linear" x1="41.0667" y1="-14.6885" x2="-21.4933" y2="29.0873" gradientUnits="userSpaceOnUse">
<stop stop-color="#4DA9FF"/>
<stop offset="1" stop-color="#A041FF"/>
</linearGradient>
<linearGradient id="paint2_linear" x1="41.0667" y1="-14.6885" x2="-21.4933" y2="29.0873" gradientUnits="userSpaceOnUse">
<stop stop-color="#4DA9FF"/>
<stop offset="1" stop-color="#A041FF"/>
</linearGradient>
<linearGradient id="paint3_linear" x1="41.0667" y1="-14.6885" x2="-21.4933" y2="29.0873" gradientUnits="userSpaceOnUse">
<stop stop-color="#4DA9FF"/>
<stop offset="1" stop-color="#A041FF"/>
</linearGradient>
<linearGradient id="paint4_linear" x1="41.0667" y1="-14.6885" x2="-21.4933" y2="29.0873" gradientUnits="userSpaceOnUse">
<stop stop-color="#4DA9FF"/>
<stop offset="1" stop-color="#A041FF"/>
</linearGradient>
<linearGradient id="paint5_linear" x1="41.0667" y1="-14.6885" x2="-21.4933" y2="29.0873" gradientUnits="userSpaceOnUse">
<stop stop-color="#4DA9FF"/>
<stop offset="1" stop-color="#A041FF"/>
</linearGradient>
<linearGradient id="paint6_linear" x1="41.0667" y1="-14.6885" x2="-21.4933" y2="29.0873" gradientUnits="userSpaceOnUse">
<stop stop-color="#4DA9FF"/>
<stop offset="1" stop-color="#A041FF"/>
</linearGradient>
<linearGradient id="paint7_linear" x1="41.0667" y1="-14.6885" x2="-21.4933" y2="29.0873" gradientUnits="userSpaceOnUse">
<stop stop-color="#4DA9FF"/>
<stop offset="1" stop-color="#A041FF"/>
</linearGradient>
<linearGradient id="paint8_linear" x1="41.0667" y1="-14.6885" x2="-21.4933" y2="29.0873" gradientUnits="userSpaceOnUse">
<stop stop-color="#4DA9FF"/>
<stop offset="1" stop-color="#A041FF"/>
</linearGradient>
<linearGradient id="paint9_linear" x1="41.0667" y1="-14.6885" x2="-21.4933" y2="29.0873" gradientUnits="userSpaceOnUse">
<stop stop-color="#4DA9FF"/>
<stop offset="1" stop-color="#A041FF"/>
</linearGradient>
<linearGradient id="paint10_linear" x1="41.0667" y1="-14.6885" x2="-21.4933" y2="29.0873" gradientUnits="userSpaceOnUse">
<stop stop-color="#4DA9FF"/>
<stop offset="1" stop-color="#A041FF"/>
</linearGradient>
<linearGradient id="paint11_linear" x1="41.0667" y1="-14.6885" x2="-21.4933" y2="29.0873" gradientUnits="userSpaceOnUse">
<stop stop-color="#4DA9FF"/>
<stop offset="1" stop-color="#A041FF"/>
</linearGradient>
<linearGradient id="paint12_linear" x1="41.0667" y1="-14.6885" x2="-21.4933" y2="29.0873" gradientUnits="userSpaceOnUse">
<stop stop-color="#4DA9FF"/>
<stop offset="1" stop-color="#A041FF"/>
</linearGradient>
<linearGradient id="paint13_linear" x1="41.0667" y1="-14.6885" x2="-21.4933" y2="29.0873" gradientUnits="userSpaceOnUse">
<stop stop-color="#4DA9FF"/>
<stop offset="1" stop-color="#A041FF"/>
</linearGradient>
<linearGradient id="paint14_linear" x1="41.0667" y1="-14.6885" x2="-21.4933" y2="29.0873" gradientUnits="userSpaceOnUse">
<stop stop-color="#4DA9FF"/>
<stop offset="1" stop-color="#A041FF"/>
</linearGradient>
<linearGradient id="paint15_linear" x1="41.0667" y1="-14.6885" x2="-21.4933" y2="29.0873" gradientUnits="userSpaceOnUse">
<stop stop-color="#4DA9FF"/>
<stop offset="1" stop-color="#A041FF"/>
</linearGradient>
<linearGradient id="paint16_linear" x1="41.0667" y1="-14.6885" x2="-21.4933" y2="29.0873" gradientUnits="userSpaceOnUse">
<stop stop-color="#4DA9FF"/>
<stop offset="1" stop-color="#A041FF"/>
</linearGradient>
<linearGradient id="paint17_linear" x1="41.0667" y1="-14.6885" x2="-21.4933" y2="29.0873" gradientUnits="userSpaceOnUse">
<stop stop-color="#4DA9FF"/>
<stop offset="1" stop-color="#A041FF"/>
</linearGradient>
<linearGradient id="paint18_linear" x1="41.0667" y1="-14.6885" x2="-21.4933" y2="29.0873" gradientUnits="userSpaceOnUse">
<stop stop-color="#4DA9FF"/>
<stop offset="1" stop-color="#A041FF"/>
</linearGradient>
<linearGradient id="paint19_linear" x1="41.0667" y1="-14.6885" x2="-21.4933" y2="29.0873" gradientUnits="userSpaceOnUse">
<stop stop-color="#4DA9FF"/>
<stop offset="1" stop-color="#A041FF"/>
</linearGradient>
<linearGradient id="paint20_linear" x1="41.0667" y1="-14.6885" x2="-21.4933" y2="29.0873" gradientUnits="userSpaceOnUse">
<stop stop-color="#4DA9FF"/>
<stop offset="1" stop-color="#A041FF"/>
</linearGradient>
<linearGradient id="paint21_linear" x1="41.0667" y1="-14.6885" x2="-21.4933" y2="29.0873" gradientUnits="userSpaceOnUse">
<stop stop-color="#4DA9FF"/>
<stop offset="1" stop-color="#A041FF"/>
</linearGradient>
</defs>
</svg>
